<svg xmlns="http://www.w3.org/2000/svg" xmlns:xlink="http://www.w3.org/1999/xlink" width="684.933" height="713.025" viewBox="0 0 684.933 713.025">
  <defs>
    <filter id="O" x="0" y="0" width="684.933" height="713.025" filterUnits="userSpaceOnUse">
      <feOffset dx="-29" dy="38" input="SourceAlpha"/>
      <feGaussianBlur result="blur"/>
      <feFlood/>
      <feComposite operator="in" in2="blur"/>
      <feComposite in="SourceGraphic"/>
    </filter>
  </defs>
  <g transform="matrix(1, 0, 0, 1, 0, 0)" filter="url(#O)">
    <path id="O-2" data-name="O" d="M441.082,120q9.069-.648,17.788-.583t17.094.844q8.375.778,16.412,2.271t15.743,3.7q7.706,2.207,15.085,5.131t14.439,6.566q7.06,3.643,13.8,8.007t13.179,9.453q6.319,5,12.01,10.452T587.4,177.213q5.071,5.917,9.525,12.3t8.3,13.247q3.843,6.861,7.077,14.2t5.865,15.174q2.63,7.832,4.657,16.16t3.455,17.161q1.452,8.985,2.153,17.635t.652,16.973q-.049,8.322-.848,16.323t-2.349,15.684q-1.55,7.684-3.852,15.057t-5.357,14.441q-3.055,7.068-6.866,13.834t-8.38,13.238q-9.446,13.377-21.092,24.19T554.831,431.91q-13.86,8.26-29.95,13.978t-34.426,8.9l-187.291,32.49q-10.469,1.816-20.646,2.739t-20.055.953q-9.878.03-19.448-.834t-18.827-2.62q-9.256-1.756-18.191-4.4t-17.542-6.185q-8.607-3.537-16.879-7.961t-16.2-9.731q-4.049-2.709-7.888-5.583t-7.467-5.911q-3.628-3.037-7.045-6.238t-6.62-6.562q-3.2-3.362-6.193-6.885T114.4,420.85q-2.775-3.683-5.334-7.524t-4.9-7.84q-2.343-4-4.469-8.154t-4.035-8.466q-1.909-4.31-3.6-8.775t-3.162-9.081q-1.472-4.617-2.725-9.385t-2.286-9.686q-1.033-4.918-1.847-9.985t-1.407-10.28q-1.173-10.3-1.391-20.209t.521-19.418q.738-9.509,2.432-18.611t4.341-17.79q2.647-8.688,6.246-16.955t8.147-16.105q4.548-7.839,10.041-15.244t11.927-14.37q12.407-13.431,26.987-23.892T181.2,151.14q16.738-7.48,35.618-11.973t39.884-5.993Zm35.1,238.02q15.315-2.2,27.034-9.111t19.862-18.544q4.014-5.735,6.725-11.955t4.122-12.933q1.411-6.713,1.523-13.927t-1.073-14.938q-1.163-7.574-3.416-14.38t-5.6-12.852q-3.347-6.047-7.795-11.347t-10-9.86q-5.6-4.6-11.688-7.848t-12.683-5.166q-6.592-1.914-13.694-2.492t-14.723.18L269.569,231.265q-17.262,1.716-30.843,8.668t-23.461,19.129q-5.016,6.182-8.523,12.919t-5.5,14.02q-1.995,7.283-2.474,15.1t.557,16.165q1.058,8.514,3.468,16.122t6.17,14.3q3.759,6.687,8.86,12.442t11.534,10.566q6.38,4.771,13.351,8.042t14.524,5.037q7.553,1.766,15.677,2.026t16.81-.988Z" fill="#fff"/>
  </g>
</svg>
